<svg width="35" height="35" viewBox="0 0 35 35" fill="none" xmlns="http://www.w3.org/2000/svg">
<circle cx="17.5" cy="21.875" r="1.2" fill="#FFFFFF"/>
<path d="M18.0636 10.9232L17.8433 18.8536C17.8381 19.0395 17.6859 19.1875 17.5 19.1875C17.3141 19.1875 17.1619 19.0395 17.1567 18.8536L16.9364 10.9232C16.9276 10.6058 17.1825 10.3438 17.5 10.3438C17.8175 10.3438 18.0724 10.6058 18.0636 10.9232Z" fill="#FFFFFF" stroke="#FFFFFF"/>
<path d="M20.9641 8L27.4593 19.25C28.9989 21.9167 27.0744 25.25 23.9952 25.25H11.0048C7.9256 25.25 6.00111 21.9167 7.54071 19.25L14.0359 7.99999C15.5755 5.33333 19.4245 5.33333 20.9641 8Z" stroke="#FFFFFF" stroke-width="2.5"/>
</svg>
