<svg width="25" height="19" viewBox="0 0 25 19" fill="none" xmlns="http://www.w3.org/2000/svg">
<circle cx="13" cy="9.46594" r="2.25" stroke="#FFFFFF" stroke-width="2.5"/>
<path d="M21.9238 10.1019L22.5598 11.178L24.7121 9.90621L24.0762 8.83005L21.9238 10.1019ZM3.05686 10.6334C5.97357 6.01529 9.30716 3.53759 12.4181 3.27396C15.4233 3.01928 18.7929 4.8034 21.9238 10.1019L24.0762 8.83005C20.7071 3.12849 16.5767 0.412579 12.2069 0.782892C7.94284 1.14425 4.02643 4.41656 0.943138 9.29845L3.05686 10.6334Z" fill="#FFFFFF"/>
<path d="M3.67041 9.52704L3.23151 8.35663L0.890684 9.23444L1.32959 10.4048L3.67041 9.52704ZM24.0354 10.6663L24.7357 9.63097L22.665 8.2302L21.9646 9.26556L24.0354 10.6663ZM1.32959 10.4048C1.7854 11.6204 2.80206 13.1186 4.16655 14.458C5.5431 15.8092 7.36001 17.0843 9.48496 17.7576C11.6324 18.438 14.0765 18.4951 16.6154 17.4164C19.1348 16.346 21.6436 14.2019 24.0354 10.6663L21.9646 9.26556C19.7564 12.5299 17.5902 14.2859 15.6378 15.1155C13.7047 15.9368 11.8801 15.8939 10.24 15.3743C8.57749 14.8476 7.08815 13.8227 5.91782 12.6739C4.73544 11.5133 3.9646 10.3115 3.67041 9.52704L1.32959 10.4048Z" fill="#FFFFFF"/>
</svg>
