<svg width="175" height="175" viewBox="0 0 175 175" fill="none" xmlns="http://www.w3.org/2000/svg">
<path d="M88 20L79.3397 5L96.6603 5L88 20Z" fill="white"/>
<path d="M88 154L96.6603 169H79.3397L88 154Z" fill="white"/>
<path d="M155 88L170 79.3397V96.6603L155 88Z" fill="white"/>
<path d="M20 88L5 96.6603L5 79.3397L20 88Z" fill="white"/>
<line x1="140.293" y1="32.364" x2="147.364" y2="25.2929" stroke="white" stroke-width="2"/>
<line x1="125.567" y1="21.4103" x2="130.567" y2="12.75" stroke="#C4C4C4"/>
<line x1="45.567" y1="163.41" x2="50.567" y2="154.75" stroke="#C4C4C4"/>
<line x1="130.567" y1="161.91" x2="125.567" y2="153.25" stroke="#C4C4C4"/>
<line x1="162.905" y1="130.145" x2="154.713" y2="124.41" stroke="#C4C4C4"/>
<line x1="20.9047" y1="50.1453" x2="12.7132" y2="44.4096" stroke="#C4C4C4"/>
<line x1="12.75" y1="131.567" x2="21.4103" y2="126.567" stroke="#C4C4C4"/>
<line x1="152.75" y1="48.567" x2="161.41" y2="43.567" stroke="#C4C4C4"/>
<line x1="50.567" y1="21.9102" x2="45.567" y2="13.25" stroke="#C4C4C4"/>
<line x1="34.3639" y1="34.7782" x2="27.2929" y2="27.7071" stroke="white" stroke-width="2"/>
<line x1="140.707" y1="142.293" x2="147.778" y2="149.364" stroke="white" stroke-width="2"/>
<line x1="27.2929" y1="149.364" x2="34.364" y2="142.293" stroke="white" stroke-width="2"/>
</svg>
