<svg width="24" height="26" viewBox="0 0 24 26" fill="none" xmlns="http://www.w3.org/2000/svg">
<path fill-rule="evenodd" clip-rule="evenodd" d="M12.0201 0C5.93388 0 1 4.93387 1 11.0201V18.4819C1 22.634 4.36596 26 8.51807 26H15.5222C19.6743 26 23.0402 22.634 23.0402 18.4819V11.0201C23.0402 4.93387 18.1064 0 12.0201 0ZM19.6552 11C19.6552 12.1046 18.7597 13 17.6552 13C16.5506 13 15.6552 12.1046 15.6552 11C15.6552 9.89543 16.5506 9 17.6552 9C18.7597 9 19.6552 9.89543 19.6552 11ZM21.6552 11C21.6552 13.2091 19.8643 15 17.6552 15C15.446 15 13.6552 13.2091 13.6552 11C13.6552 8.79086 15.446 7 17.6552 7C19.8643 7 21.6552 8.79086 21.6552 11ZM8.65516 11C8.65516 12.1046 7.75973 13 6.65516 13C5.55059 13 4.65516 12.1046 4.65516 11C4.65516 9.89543 5.55059 9 6.65516 9C7.75973 9 8.65516 9.89543 8.65516 11ZM10.6552 11C10.6552 13.2091 8.8643 15 6.65516 15C4.44602 15 2.65516 13.2091 2.65516 11C2.65516 8.79086 4.44602 7 6.65516 7C8.8643 7 10.6552 8.79086 10.6552 11ZM18.2344 20.8151C18.6846 20.4952 18.7902 19.8709 18.4703 19.4207C18.1504 18.9705 17.5261 18.8649 17.0759 19.1849C12.4632 22.4629 7.93887 20.5537 6.28195 19.2208C5.85161 18.8746 5.22214 18.9429 4.87597 19.3732C4.52981 19.8035 4.59804 20.433 5.02837 20.7792C7.12389 22.4648 12.653 24.7815 18.2344 20.8151Z" fill="#FFFFFF"/>
<rect x="22" y="8" width="1.94253" height="4.85632" rx="0.971264" fill="#FFFFFF"/>
<rect y="8" width="1.94253" height="4.85632" rx="0.971264" fill="#FFFFFF"/>
</svg>
