<svg width="18" height="20" viewBox="0 0 18 20" fill="none" xmlns="http://www.w3.org/2000/svg">
<path d="M8.78922 0C7.81984 0 7.03125 0.788593 7.03125 1.75797V8.82889C7.03125 9.79827 7.81984 10.5869 8.78922 10.5869C9.75859 10.5869 10.5472 9.79827 10.5472 8.82889V1.75797C10.5472 0.788593 9.75859 0 8.78922 0Z" fill="white"/>
<path d="M14.6724 4.64656C13.9326 3.97926 12.8559 4.05515 12.2099 4.71972C11.5602 5.38804 11.51 6.51996 12.3331 7.27035C13.6393 8.45765 14.2996 10.257 13.9868 12.0722C13.5623 14.5358 11.4197 16.4772 8.78954 16.4829C6.09537 16.4889 4.03139 14.4997 3.60564 12.162C3.27373 10.3359 3.88607 8.50757 5.24517 7.27148C6.06587 6.52433 6.02302 5.38742 5.3715 4.71836C4.72435 4.05379 3.64123 3.98199 2.89494 4.65742C0.828187 6.52941 -0.25064 9.29683 0.0495161 12.1019C0.526781 16.562 4.29256 19.9997 8.81025 19.9997C13.2761 19.9997 16.9327 16.5538 17.4965 12.3926C17.8896 9.49296 16.8338 6.59734 14.6724 4.64656Z" fill="white"/>
</svg>
